<?xml version="1.0" encoding="utf-8"?>
<!-- Generator: Adobe Illustrator 26.0.2, SVG Export Plug-In . SVG Version: 6.00 Build 0)  -->
<svg version="1.1" id="Layer_1" xmlns="http://www.w3.org/2000/svg" xmlns:xlink="http://www.w3.org/1999/xlink" x="0px" y="0px"
	 viewBox="0 0 100 100" style="enable-background:new 0 0 100 100;" xml:space="preserve">
<path fill="#EA708A" d="M90,100H10c-5.52,0-10-4.48-10-10V10C0,4.48,4.48,0,10,0h80c5.52,0,10,4.48,10,10v80
	C100,95.52,95.52,100,90,100z"/>
<path fill="#FFFFFF" d="M49.67,22.26c4.67,8.2,13.44,13.78,23.51,13.93c-2.36,4.06-3.71,8.78-3.71,13.81c0,5.03,1.35,9.75,3.71,13.81
	c-10.07,0.15-18.84,5.73-23.51,13.93c-4.57-8.03-13.06-13.53-22.85-13.92c2.36-4.06,3.71-8.78,3.71-13.82
	c0-5.04-1.35-9.76-3.71-13.82C36.61,35.79,45.1,30.29,49.67,22.26 M49.67,10C49.67,10,49.67,10,49.67,10
	c-4.41,0-8.48,2.37-10.66,6.2c-2.63,4.63-7.37,7.52-12.67,7.73c-4.3,0.17-8.19,2.58-10.26,6.34c-2.07,3.77-2.02,8.35,0.14,12.07
	c1.34,2.31,2.05,4.96,2.05,7.66c0,2.71-0.71,5.36-2.05,7.66c-2.16,3.72-2.22,8.3-0.14,12.07c2.07,3.77,5.97,6.18,10.26,6.34
	c5.3,0.21,10.04,3.1,12.67,7.73c2.18,3.83,6.24,6.2,10.65,6.2c0,0,0,0,0.01,0c4.4,0,8.47-2.36,10.65-6.19
	c2.68-4.7,7.68-7.66,13.04-7.74c4.35-0.07,8.34-2.44,10.49-6.22c2.14-3.79,2.11-8.43-0.07-12.19c-1.34-2.31-2.05-4.95-2.05-7.65
	c0-2.7,0.71-5.34,2.05-7.65c2.19-3.76,2.21-8.41,0.07-12.19c-2.14-3.79-6.13-6.16-10.49-6.22C68,23.85,63,20.88,60.32,16.19
	C58.14,12.36,54.07,10,49.67,10L49.67,10z"/>
</svg>
