<svg viewBox="0 0 100 100">
	<g>
		<path fill="#BF2828" d="M94.8,62.8c-1.2-6.4-9.5-33.6-12.7-43.9c-0.6-1.8-2.9-2.4-4.2-1.1l-6.8,6.5c-0.5,0.5-1.2,0.4-1.7-0.1L51.8,3.9
			c-1-1.1-2.7-1.1-3.7,0L30.6,24.2c-0.4,0.5-1.2,0.5-1.7,0.1l-6.8-6.5c-1.4-1.3-3.7-0.7-4.2,1.1C14.7,29.2,6.4,56.4,5.2,62.8
			c-1.5,7.9,12,20.7,25.6,27.8C44.4,97.7,50,96.9,50,96.9s5.6,0.8,19.2-6.3C82.7,83.5,96.3,70.7,94.8,62.8z M23.2,66.1
			c-5.1-5.8-1.9-14.3-1.9-14.3l20,17.1C33.5,75.1,28.3,71.9,23.2,66.1z M76.8,66.1c-5.1,5.8-10.2,9-18.1,2.8l20-17.1
			C78.6,51.8,81.9,60.3,76.8,66.1z"/>
		<path fill="#FFFFFF" d="M49.4,98.5c-2.1,0-8-0.7-19.3-6.5C16.1,84.6,2,71.3,3.7,62.5c1.2-6.4,9.3-32.9,12.7-44.1
			c0.4-1.4,1.5-2.4,2.9-2.8c1.4-0.4,2.8,0,3.9,1l6.5,6.2L47,2.9c0.8-0.9,1.9-1.4,3-1.4c1.2,0,2.2,0.5,3,1.4l17.3,20l6.5-6.2
			c1-1,2.5-1.4,3.9-1c1.4,0.4,2.5,1.4,2.9,2.8C87,29.6,95.1,56.1,96.3,62.5l0,0C98,71.3,83.9,84.6,69.9,92
			c-12.7,6.6-18.6,6.6-19.9,6.5C49.9,98.5,49.7,98.5,49.4,98.5z M50,95.4c0.1,0,0.1,0,0.2,0c0,0,5.4,0.5,18.2-6.2
			c14.5-7.6,26.1-19.8,24.8-26.1l0,0c-1.2-6.2-9.2-32.7-12.6-43.7c-0.2-0.5-0.6-0.6-0.7-0.7c-0.2,0-0.6-0.1-1,0.3l-6.8,6.5
			c-0.5,0.5-1.3,0.8-2,0.7c-0.7,0-1.4-0.4-1.9-0.9L50.7,4.9c-0.2-0.3-0.5-0.3-0.7-0.3s-0.4,0-0.7,0.3L31.7,25.2
			c-0.5,0.6-1.2,0.9-1.9,0.9c-0.7,0-1.5-0.2-2-0.7L21,18.9c-0.4-0.4-0.8-0.3-1-0.3c-0.2,0-0.6,0.2-0.7,0.7C16.7,28,8,56.7,6.7,63.1
			c-1.2,6.4,10.4,18.6,24.8,26.1c12.8,6.7,18.2,6.2,18.2,6.2C49.9,95.4,49.9,95.4,50,95.4z M66.6,73.8c-2.6,0-5.6-1-8.9-3.6
			c-0.4-0.3-0.6-0.7-0.6-1.2c0-0.5,0.2-0.9,0.5-1.2l20-17.1c0.4-0.3,0.9-0.4,1.4-0.3c0.5,0.1,0.9,0.5,1.1,1c0.1,0.4,3.5,9.5-2.2,15.9
			C74.8,70.6,71.2,73.8,66.6,73.8z M33.4,73.8c-4.6,0-8.2-3.2-11.3-6.7l0,0c-5.6-6.4-2.3-15.5-2.1-15.9c0.2-0.5,0.6-0.8,1.1-1
			c0.5-0.1,1,0,1.4,0.3l20,17.1c0.4,0.3,0.6,0.7,0.5,1.2c0,0.5-0.2,0.9-0.6,1.2C39,72.8,36,73.8,33.4,73.8z"/>
	</g>
</svg>
