<svg width="16" height="24" viewBox="0 0 16 24" fill="none" xmlns="http://www.w3.org/2000/svg">
    <path d="M15.5 8.04711C15.5 4.04146 12.2126 0.800049 8.15005 0.800049C4.0875 0.800049 0.800049 4.04146 0.800049 8.04711C0.800049 11.6048 3.39259 14.5431 6.81369 15.1624V17.9295H4.14096V20.5648H6.81369V23.2H9.48641V20.5648H12.1591V17.9295H9.48641V15.1624C12.9075 14.5431 15.5 11.6048 15.5 8.04711ZM3.47278 8.04711C3.47278 5.50405 5.57087 3.43534 8.15005 3.43534C10.7292 3.43534 12.8273 5.50405 12.8273 8.04711C12.8273 10.5902 10.7292 12.6589 8.15005 12.6589C5.57087 12.6589 3.47278 10.5902 3.47278 8.04711Z"/>
</svg>
