<svg viewBox="0 0 100 100" xmlns="http://www.w3.org/2000/svg">
 <g>
  <path stroke-width="3" stroke="#ffffff" fill="#bf78bf" d="m41.10794,14.12508c5.76492,-3.89473 12.72587,-5.37744 20.42713,-2.95334c5.8862,1.85197 8.74083,1.51153 11.91364,-1.16495c2.74826,-2.31962 6.97723,-1.04189 7.98215,2.41192l5.80797,19.98033c0.322,1.10752 0.25021,2.29295 -0.20509,3.35121c-3.05178,7.09642 -13.57329,11.50779 -23.04025,8.69201c-5.10684,-1.51972 -10.94967,-0.08614 -12.90859,4.31308c-1.91964,4.31308 -8.20792,3.77371 -9.36458,-0.80604l-6.37239,-25.22861c-0.38147,-1.51358 -0.03076,-3.11946 0.94754,-4.33566c0.94344,-1.17315 2.54932,-2.73183 4.8115,-4.25979l0.00096,-0.00016z"/>
  <path stroke-width="3" stroke="#ffffff" fill="#514943" d="m43.87252,84.09373c0.6522,2.66824 -0.9824,5.35906 -3.65064,6.01116c-2.66825,0.65016 -5.35907,-0.98444 -6.01117,-3.65269l-16.34391,-66.92136c-0.65015,-2.66824 0.98445,-5.35906 3.65269,-6.01116c2.66825,-0.65015 5.35907,0.98445 6.00906,3.65269l16.34397,66.92136z"/>
 </g>
</svg>