<svg width="20" height="20" viewBox="0 0 20 20" fill="none" xmlns="http://www.w3.org/2000/svg">
    <path d="M6.9999 8.7999C9.3159 8.7999 11.1999 10.6839 11.1999 12.9999C11.1999 15.3159 9.3159 17.1999 6.9999 17.1999C4.6839 17.1999 2.7999 15.3159 2.7999 12.9999C2.7999 10.6839 4.6839 8.7999 6.9999 8.7999ZM6.9999 6.3999C3.3519 6.3999 0.399902 9.3519 0.399902 12.9999C0.399902 16.6479 3.3519 19.5999 6.9999 19.5999C10.6479 19.5999 13.5999 16.6479 13.5999 12.9999C13.5999 11.6079 13.1679 10.3239 12.4359 9.2559L17.1999 4.5039V7.5999H19.5999V0.399902H12.3999V2.7999H15.4959L10.7319 7.5639C9.6759 6.8319 8.3919 6.3999 6.9999 6.3999Z" />
</svg>
