<svg width="608" height="645" viewBox="0 0 608 645" fill="none" xmlns="http://www.w3.org/2000/svg">
    <path d="M763.072 160.911C761.836 159.234 760.262 158.006 758.352 157.237C756.381 156.58 754.28 156.407 752.066 156.718C750.311 157.358 748.738 158.404 747.346 159.856C746.888 160.237 746.36 160.591 745.781 160.911C665.695 218.549 590.756 281.962 520.933 351.142C520.44 351.635 519.922 352.162 519.36 352.716C519.187 353.234 518.832 353.762 518.313 354.289C516.593 355.966 515.547 357.886 515.175 360.047C514.864 362.554 515.21 364.819 516.221 366.868C525.316 382.421 529.855 399.894 529.847 419.268C529.873 449.268 519.212 475.125 497.876 496.834L496.83 497.88C475.846 518.854 451.216 529.513 422.934 529.85H420.315H416.64C401.779 529.573 387.98 526.608 375.236 520.937C373.481 520.046 371.562 519.7 369.478 519.89C367.689 520.167 365.942 520.867 364.23 521.991C362.821 523.435 361.766 525 361.092 526.703C360.953 527.083 360.781 527.429 360.564 527.749C300.071 602.971 243.641 683.503 191.283 769.342C188.768 772.567 187.894 775.186 188.664 777.209C188.664 778.964 189.018 780.538 189.718 781.921C190.79 783.719 192.01 785.111 193.384 786.114C260.172 828.019 335.466 848.982 419.25 849C538.128 848.974 639.446 807.053 723.223 723.228C807.052 639.454 848.973 538.14 849 419.267C849 321.151 820.349 235.027 763.054 160.92L763.072 160.911ZM752.575 181.876C802.883 250.649 828.044 329.789 828.044 419.286C828.07 532.41 788.24 628.841 708.553 708.574C628.814 788.258 532.379 828.087 419.254 828.06C343.267 828.078 274.611 809.914 213.287 773.552C263.449 691.871 317.261 615.004 374.711 542.958C387.801 547.834 401.598 550.453 416.115 550.825H416.634H420.309H422.928C456.836 550.462 486.361 537.71 511.495 512.561C511.85 512.215 512.195 511.87 512.541 511.515C538.021 485.709 550.771 454.966 550.807 419.278C550.79 398.78 546.596 380.089 538.227 363.204C605.007 297.456 676.454 237.016 752.58 181.876L752.575 181.876ZM419.259 349.577C400.394 349.577 383.977 356.39 369.995 370.015C356.37 383.994 349.557 400.411 349.557 419.276C349.557 438.495 356.37 454.913 369.995 468.538L370.523 469.065C371.569 470.111 372.796 471.339 374.188 472.731C386.768 483.217 401.438 488.802 418.213 489.503H421.36C439.524 488.802 455.25 481.817 468.523 468.538C482.503 454.913 489.489 438.496 489.489 419.276C489.489 400.412 482.676 384.168 469.05 370.541L467.477 368.968C454.206 356.043 438.133 349.577 419.26 349.577L419.259 349.577ZM421.361 0.0233694H418.214C302.57 0.714995 204.034 41.5984 122.629 122.648C40.875 204.406 0 303.274 0 419.261C0 535.249 40.8772 634.132 122.629 715.875L123.157 716.402C129.797 722.341 136.255 728.627 142.549 735.266C195.659 647.577 252.954 565.819 314.451 489.999C315.843 488.253 317.243 486.852 318.644 485.806C305.364 466.242 298.724 444.058 298.724 419.246C298.724 386.756 310.257 358.633 333.316 334.877L334.889 333.303C358.647 310.246 386.771 298.713 419.262 298.713C440.228 298.713 459.092 303.252 475.865 312.338C476.911 310.946 478.138 309.891 479.53 309.2C550.814 238.273 626.973 173.46 708.03 114.766C628.369 38.9546 532.809 0.690519 421.365 0L421.361 0.0233694Z" fill="url(#paint0_linear_200_323)" fill-opacity="0.12"/>
    <defs>
        <linearGradient id="paint0_linear_200_323" x1="424.5" y1="0" x2="424.5" y2="849" gradientUnits="userSpaceOnUse">
            <stop stop-color="white"/>
            <stop offset="1" stop-color="white" stop-opacity="0"/>
        </linearGradient>
    </defs>
</svg>
