<svg width="24" height="24" viewBox="0 0 24 24" fill="none" xmlns="http://www.w3.org/2000/svg">
    <path fill-rule="evenodd" clip-rule="evenodd" d="M8.07331 7.87229C10.4898 14.9246 9.11676 13.5031 16.2016 15.9088C9.11697 18.3142 10.49 16.9475 8.07331 24C5.65687 16.9477 7.02986 18.3145 0 15.9088C7.02966 13.5034 5.65661 14.9247 8.07331 7.87229Z" fill="white"/>
    <path fill-rule="evenodd" clip-rule="evenodd" d="M18.6178 4.04561C20.2105 8.69251 19.3317 7.81777 24 9.40327C19.3318 10.9887 20.2106 10.0593 18.6178 14.7062C17.0251 10.0593 17.9588 10.9887 13.2906 9.40327C17.9588 7.81782 17.0251 8.69262 18.6178 4.04561Z" fill="white"/>
    <path fill-rule="evenodd" clip-rule="evenodd" d="M11.6981 0C12.7416 3.00682 12.1374 2.40542 15.158 3.44411C12.1374 4.48281 12.7416 3.88141 11.6981 6.88823C10.6547 3.88141 11.2588 4.48281 8.23821 3.44411C11.2588 2.40542 10.6547 3.00682 11.6981 0Z" fill="white"/>
</svg>
