<svg xmlns="http://www.w3.org/2000/svg" viewBox="0 0 100 100">
     <path stroke="#ffffff" stroke-width="6" id="svg_1" fill="#ffc311" d="m78.71598,83.74749c0.33695,1.96467 -0.47,3.9518 -2.08215,5.12333c-0.91235,0.66353 -1.99231,1.00047 -3.07917,1.00047c-0.83459,0 -1.6709,-0.19871 -2.43639,-0.60133l-20.80429,-10.93805l-20.80429,10.93805c-1.76078,0.92792 -3.90341,0.77239 -5.5157,-0.39915c-1.61215,-1.17153 -2.42086,-3.15694 -2.08215,-5.12333l3.97255,-23.16468l-16.82842,-16.40509c-1.4273,-1.39098 -1.94219,-3.47318 -1.32533,-5.36883c0.61514,-1.89729 2.25671,-3.27792 4.22827,-3.56474l23.25625,-3.37984l10.4006,-21.07589c0.88298,-1.78843 2.70423,-2.92024 4.69646,-2.92024s3.81357,1.1318 4.69646,2.92024l10.4006,21.07589l23.25625,3.37984c1.97157,0.28684 3.61314,1.66917 4.22827,3.56474c0.61514,1.89557 0.10195,3.97772 -1.32533,5.36883l-16.82842,16.40509l3.97255,23.16468l0.00341,0.00002z"/>
</svg>