<svg  viewBox="0 0 100 100" xmlns="http://www.w3.org/2000/svg" version="1.1">
 <g>
  <path stroke-width="3" stroke="#ffffff" fill="#187c45" d="m84.0239,40.92607c1.11043,-1.97251 1.7793,-4.15748 1.7793,-6.48686c0,-7.41256 -6.28591,-13.55453 -14.56434,-14.84986c-1.52377,-7.03721 -8.74909,-12.38064 -17.46908,-12.38064c-9.0336,0 -16.41498,5.7427 -17.56119,13.15526c-8.39965,2.4453 -14.47223,9.13741 -14.47223,17.10094c0,0.36895 0.09958,0.71394 0.12776,1.07729c-8.86189,2.62582 -15.1045,9.99034 -14.29378,18.57679c0.91127,9.58473 11.08361,16.65301 22.39545,16.65301l13.12592,0l0,6.05099c0,3.34054 -3.18949,6.05099 -7.11827,6.05099l-7.11923,0l0,6.05099l42.71011,0l0,-6.05099l-7.11827,0c-3.92974,0 -7.11827,-2.71127 -7.11827,-6.05099l0,-6.05099l13.19086,0c11.0901,0 21.09893,-6.79515 22.28098,-16.1691c0.86053,-6.87427 -2.83331,-13.02176 -8.77723,-16.67693l0.00153,0.0001z"/>
 </g>
</svg>