<svg  viewBox="0 0 100 100" xmlns="http://www.w3.org/2000/svg">
 <g>
   <path fill="#edc7a3" stroke="#ffffff" d="m65.60229,48.47851c-1.90457,5.42697 -7.14159,9.33112 -13.23527,9.33112c-6.09388,0 -11.23575,-3.90415 -13.23527,-9.33112c-10.37884,1.52364 -20.66277,4.76106 -30.4704,9.90293c4.09415,18.94814 20.94827,33.23093 41.13454,33.23093c21.04277,0 38.37199,-15.425 41.51454,-35.51495c-8.37851,-3.80825 -16.94862,-6.28468 -25.70733,-7.6175l-0.0008,-0.00141l-0.00001,0z" stroke-width="3"/>
   <path fill="#c40b0b" stroke="#ffffff" d="m52.46112,29.72177c6.28468,0 11.61655,4.09415 13.42527,9.80703c8.76011,1.14274 17.42452,3.52315 25.80383,6.95059c-1.61868,-21.71029 -19.70915,-38.8485 -41.89655,-38.8485c-22.94679,0 -41.60903,18.47224 -41.99105,41.32353c10.09293,-4.76106 20.56626,-7.9034 31.23241,-9.33112c1.80874,-5.71287 7.14079,-9.90213 13.42527,-9.90213l0.0008,0.0006l0.00002,0z" stroke-width="3"/>
   <path stroke="null" d="m60.55573,43.81396c0,4.46953 -3.62368,8.0934 -8.0934,8.0934s-8.0934,-3.62368 -8.0934,-8.0934c0,-4.47033 3.62368,-8.09421 8.0934,-8.09421s8.0934,3.62368 8.0934,8.09421" fill="#b2b2b2"/>
 </g>
</svg>