<svg viewBox="0 0 100 100" xmlns="http://www.w3.org/2000/svg">

 <g>
  <path stroke-width="1" fill="#4d95dd" stroke="#ffffff" d="m82.86617,30.60004l-12.42172,4.22793l-0.35749,2.31579l8.40015,7.44857l4.37906,-13.99229z"/>
  <path stroke-width="1" fill="#4d95dd" stroke="#ffffff" d="m68.0325,70.86435l8.93663,-21.94419l-7.68517,-6.84491l-4.55747,27.985l3.30602,0.8041z"/>
  <path stroke-width="1" fill="#4d95dd" stroke="#ffffff" d="m92.33889,46.30361l-5.98744,-13.48811l-4.11082,13.28724l10.09826,0.20086z"/>
  <path stroke-width="1" fill="#4d95dd" stroke="#ffffff" d="m71.51778,72.97927l5.09338,5.43588l15.19183,-27.68105l-11.08101,-0.20176l-9.2042,22.44693z"/>
  <path stroke-width="1" fill="#4d95dd" stroke="#ffffff" d="m32.19655,71.76983l6.97075,1.913l-4.91506,-29.898l-9.29421,6.9463l7.23852,21.0387z"/>
  <path stroke-width="1" fill="#4d95dd" stroke="#ffffff" d="m16.55902,32.91476l-9.11513,13.38757l12.51097,1.1076l-3.39584,-14.49517z"/>
  <path stroke-width="1" fill="#4d95dd" stroke="#ffffff" d="m28.44332,73.07917l-7.32834,-21.03807l-13.31502,-1.20808l15.54923,27.58115l5.09413,-5.33501z"/>
  <path stroke-width="1" fill="#4d95dd" stroke="#ffffff" d="m33.44763,38.95558l-0.44669,-2.81891l-12.69005,-4.62966l3.39584,14.7966l9.7409,-7.34803z"/>
  <path stroke-width="1" fill="#4d95dd" stroke="#ffffff" d="m67.04937,20.63545l-13.1367,-12.58305l1.42998,17.51582l11.70672,-4.93277z"/>
  <path stroke-width="1" fill="#4d95dd" stroke="#ffffff" d="m49.89092,7.54844l-13.40428,12.88445l14.9235,5.13448l-1.51922,-18.01893z"/>
  <path stroke-width="1" fill="#4d95dd" stroke="#ffffff" d="m43.99405,74.99217l5.63004,-6.74437l1.96587,-37.94959l-16.44347,-5.6376l8.22164,50.12899l0.62592,0.20257z"/>
  <path stroke-width="1" fill="#4d95dd" stroke="#ffffff" d="m68.0325,24.96308l-12.51097,5.23417l-1.87667,37.0441l7.14926,1.81169l7.23839,-44.08996z"/>
  <path stroke-width="1" fill="#b57a58" stroke="#ffffff" d="m68.5684,75.89765c-0.26831,-0.30223 -0.53587,-0.50316 -0.89338,-0.50316l-14.29834,-3.62428c-0.6258,-0.20093 -1.34081,0.10047 -1.78749,0.60361l-5.45097,6.54266c-0.44669,0.60361 -1.16167,0.80539 -1.87667,0.60361l-11.88506,-3.32202c-0.6258,-0.20093 -1.34081,0 -1.78749,0.50316l-11.61748,12.2808c-0.89338,1.00632 -0.26831,2.71752 0.98329,2.71752l60.05365,0c1.25087,0 1.87667,-1.71124 0.98329,-2.71752l-12.42336,-13.08438z"/>
 </g>
</svg>