<svg viewBox="0 0 100 100" xmlns="http://www.w3.org/2000/svg">
  <g>
    <path fill="#ffffff" d="m24.51093,92.80392c-1.02469,-3.99328 1.24919,-11.87853 8.18487,-14.82096l8.76731,-3.47164l-2.60054,-0.58915c-20.80705,-4.6238 -29.06369,-12.43392 -29.06369,-24.62391c0,-3.78311 -1.05087,-10.50862 -2.10172,-15.1324c-1.05087,-4.62379 -1.47121,-8.61706 -1.05087,-9.0374c2.10172,-2.10172 12.44912,2.88586 15.81188,10.24188l2.72463,6.78544l0.37897,-1.68473c3.57293,-16.18326 7.5662,-23.74945 14.50188,-27.11222c3.99328,-1.89154 10.50862,-3.36275 14.50188,-3.36275c4.20344,0 10.08826,-1.05086 13.24084,-2.10172c3.15258,-1.26103 6.09499,-1.89155 6.51534,-1.26103c2.52206,2.31189 -0.4237,10.68503 -8.7293,15.45907l-6.9956,4.31233l3.95525,0.40514c5.04414,1.26104 10.92896,2.73224 12.82051,3.36276c6.30517,1.89154 14.29171,13.24084 14.29171,20.3867c0,3.7831 1.05086,10.50862 2.10172,15.1324c1.05087,4.62379 1.47121,8.61706 1.05087,9.24757c-2.31189,2.31188 -12.30648,-0.95294 -15.77812,-9.07452c-3.47164,-8.12159 -3.77551,-9.6156 -5.02893,1.7185c-1.25342,11.3341 -9.66792,21.01722 -29.63428,22.90877c-5.67465,0.63051 -12.18999,1.68137 -14.08154,2.52206c-2.10172,0.84069 -3.7831,0.63052 -3.7831,-0.21017c0.00001,0 1.0247,3.99328 0.00001,0l0,-0.00001zm38.13486,-32.74215c3.33235,-6.50775 5.41551,-14.67405 -2.71368,-22.09759c-8.12919,-7.42355 -26.99148,-3.81687 -26.99148,14.46812c1.03478,9.76832 9.34462,14.49002 15.64978,14.14481c6.30516,-0.34521 11.11297,-3.57292 14.05538,-6.51533l0,-0.00001z"/>
    <path fill="#ad66a9" d="m26.39212,89.66472c0.19303,-3.66749 7.14195,-10.42338 13.51178,-13.12574l6.75589,-2.70236l-5.79077,-1.35118c-19.10953,-4.24656 -27.9887,-11.58153 -27.9887,-22.77702c0,-3.47446 -0.96513,-9.65128 -1.93026,-13.89784c-0.96513,-4.24656 -1.35118,-7.91405 -0.96513,-8.3001c1.93026,-1.93026 9.65128,5.40472 12.73969,12.16061l3.47446,7.528l1.15815,-5.59774c3.28143,-14.86297 6.94892,-21.81189 13.31876,-24.9003c3.66749,-1.73723 9.65128,-3.08841 13.31876,-3.08841c3.86051,0 9.26523,-0.96513 12.16061,-1.93026c2.89538,-1.15815 5.59774,-1.73723 5.98379,-1.15815c2.31631,2.12328 -4.43959,9.65128 -11.58153,12.73969l-7.72102,3.47446l8.49312,2.31631c4.63261,1.15815 10.03733,2.50933 11.77455,3.08841c5.79077,1.73723 13.12574,12.16061 13.12574,18.72348c0,3.47446 0.96513,9.65128 1.93026,13.89784c0.96513,4.24656 1.35118,7.91405 0.96513,8.49312c-2.12328,2.12328 -10.61641,-6.17682 -12.54666,-12.54666c-2.70236,-8.10707 -4.43959,-6.56287 -6.56287,5.79077c-2.70236,14.66994 -8.87918,19.30256 -27.2166,21.03979c-5.21169,0.57908 -11.19548,1.5442 -12.93271,2.31631c-1.93026,0.7721 -3.47446,0.57908 -3.47446,-0.19303l0.00001,0l0,0.00001zm36.48183,-26.83055c5.52492,-6.23057 6.75589,-18.33743 -0.38605,-25.47937c-11.77455,-11.77455 -31.27014,-3.66749 -31.27014,13.12574c0,6.56287 1.38977,8.80245 6.56287,14.41045c5.17309,5.60799 19.56839,4.17375 25.09332,-2.05682l-0.00001,0z"/>
  </g>
</svg>