<?xml version="1.0" encoding="utf-8"?>
<!-- Generator: Adobe Illustrator 26.0.2, SVG Export Plug-In . SVG Version: 6.00 Build 0)  -->
<svg version="1.1" id="Layer_1" xmlns="http://www.w3.org/2000/svg" xmlns:xlink="http://www.w3.org/1999/xlink" x="0px" y="0px"
	 viewBox="0 0 100 100" style="enable-background:new 0 0 100 100;" xml:space="preserve">
<path fill="#E2BE2A" d="M90,100H10c-5.52,0-10-4.48-10-10V10C0,4.48,4.48,0,10,0h80c5.52,0,10,4.48,10,10v80
	C100,95.52,95.52,100,90,100z"/>
<path fill="#FFFFFF" d="M49.4,10.18L73.65,24.4c0.7,0.41,0.87,1.34,0.37,1.98l-15.91,20.1c-0.46,0.58-0.36,1.43,0.23,1.88l14.08,10.87
	c0.65,0.5,0.7,1.45,0.11,2.01C66.95,66.59,42.28,90.23,42.28,90c0-0.23,4.75-17.99,5.82-22.01c0.13-0.5-0.03-1.02-0.42-1.35
	L26.16,48.27c-0.5-0.42-0.61-1.15-0.28-1.7l21.71-35.92C47.96,10.02,48.77,9.81,49.4,10.18z"/>
</svg>
