<svg viewBox="0 0 400 150" xmlns="http://www.w3.org/2000/svg">
    <path d="m390.35111,74.57915c-0.12079,-1.38507 -0.70057,-3.23452 -1.62668,-4.27064l-48.81609,-55.32293c-2.12866,-2.89094 -6.5201,-2.88022 -9.22049,-0.51807c-2.70306,2.36484 -2.90709,6.56573 -0.54222,9.05969l39.35646,44.54256l-343.98587,0c-3.59426,0 -6.50938,2.28817 -6.50938,5.88242c0,3.59426 2.60165,5.88242 6.1959,5.88242l344.29935,1.25392l-39.35646,44.54256c-2.58226,2.49368 -1.8575,6.77243 0.84557,9.13459c2.70306,2.36484 6.78851,2.19572 8.91744,-0.59322l48.81609,-55.32293c1.30453,-1.41461 1.55418,-2.94735 1.62668,-4.27064l-0.0003,0.00027z"/>
</svg>