<?xml version="1.0" encoding="utf-8"?>
<!-- Generator: Adobe Illustrator 26.0.2, SVG Export Plug-In . SVG Version: 6.00 Build 0)  -->
<svg version="1.1" id="Layer_1" xmlns="http://www.w3.org/2000/svg" xmlns:xlink="http://www.w3.org/1999/xlink" x="0px" y="0px"
	 viewBox="0 0 100 100" style="enable-background:new 0 0 100 100;" xml:space="preserve">
<g>
	<path fill="#FFFFFF" d="M43.89,34.1l-19.9,42.88H41.4l4.39-42.35C45.91,33.5,44.37,33.08,43.89,34.1z"/>
	<path fill="#FFFFFF" d="M74.06,34.1l-21.9,42.88h17.41l6.39-42.35C76.07,33.5,74.53,33.08,74.06,34.1z"/>
	<path fill="#FFFFFF" d="M61.5,24.61c0.04-1.07-1.41-1.45-1.89-0.49L49.15,44.85l-1.99,26.26c-0.08,1.03,1.26,1.49,1.83,0.63
		l11.32-17.01L61.5,24.61z"/>
</g>
<path fill="#848383" d="M90,100H10c-5.52,0-10-4.48-10-10V10C0,4.48,4.48,0,10,0h80c5.52,0,10,4.48,10,10v80
	C100,95.52,95.52,100,90,100z"/>
<path fill="#FFFFFF" d="M74.38,10c-3.67,0-6.3,1.27-7.85,3.58C61.49,11.29,55.9,10,50,10c-5.96,0-11.6,1.31-16.68,3.65
	C31.68,11.32,28.99,10,25.37,10c-6.25,0-12.43,7.07-12.43,13.32c0,2.99,0.75,5.37,2.21,7.06C11.87,36.18,10,42.87,10,50
	c0,22.09,17.91,40,40,40s40-17.91,40-40c0-7.2-1.91-13.95-5.24-19.78c1.5-1.75,2.3-4.19,2.3-7.15C87.07,16.81,80.63,10,74.38,10
	L74.38,10z M50,77.92C34.6,77.92,22.08,65.4,22.08,50c0-15.4,12.53-27.92,27.92-27.92S77.92,34.6,77.92,50
	C77.92,65.4,65.4,77.92,50,77.92L50,77.92z"/>
</svg>
