<svg viewBox="0 0 100 100" xmlns="http://www.w3.org/2000/svg">
  <g>
   <path fill="#ffffff" d="m74.97457,79.8977c0.33839,1.97306 -0.47201,3.9687 -2.09106,5.14523c-0.91625,0.66637 -2.00083,1.00475 -3.09234,1.00475c-0.83815,0 -1.67804,-0.19956 -2.44681,-0.60391l-20.89324,-10.98482l-20.89324,10.98482c-1.76831,0.93189 -3.9201,0.77569 -5.53928,-0.40086c-1.61905,-1.17654 -2.43121,-3.17044 -2.09106,-5.14523l3.98953,-23.26372l-16.90037,-16.47523c-1.4334,-1.39692 -1.9505,-3.48803 -1.331,-5.39179c0.61777,-1.90541 2.26635,-3.29194 4.24635,-3.57998l23.35568,-3.39429l10.44506,-21.166c0.88676,-1.79608 2.7158,-2.93272 4.71654,-2.93272s3.82987,1.13664 4.71654,2.93272l10.44506,21.166l23.35568,3.39429c1.98,0.28807 3.62858,1.67631 4.24635,3.57998c0.61777,1.90367 0.10238,3.99473 -1.331,5.39179l-16.90037,16.47523l3.98953,23.26372l0.00342,0.00002z"/>
   <path fill="#ffc907" d="m71.4973,76.12875c0.29714,1.73255 -0.41447,3.48491 -1.83616,4.51803c-0.80456,0.58514 -1.75692,0.88227 -2.71538,0.88227c-0.73599,0 -1.47349,-0.17523 -2.14855,-0.53029l-18.34634,-9.64577l-18.34635,9.64577c-1.55276,0.81829 -3.44223,0.68113 -4.86404,-0.352c-1.42168,-1.03311 -2.13485,-2.78396 -1.83615,-4.51803l3.50321,-20.42787l-14.84021,-14.4669c-1.25867,-1.22664 -1.71273,-3.06283 -1.16876,-4.73453c0.54246,-1.67314 1.99009,-2.89065 3.72872,-3.14358l20.50862,-2.98052l9.17181,-18.58586c0.77866,-1.57714 2.38474,-2.57522 4.14159,-2.57522s3.363,0.99808 4.14158,2.57522l9.17181,18.58586l20.50862,2.98052c1.73863,0.25295 3.18626,1.47197 3.72872,3.14358c0.54246,1.67162 0.0899,3.50777 -1.16876,4.73453l-14.84021,14.4669l3.50321,20.42787l0.00301,0.00002z"/>
  </g>
  <g>
   <path fill="#ffffff" d="m86.12181,92.32902c0.23848,1.39054 -0.33266,2.79699 -1.4737,3.62616c-0.64574,0.46963 -1.4101,0.70811 -2.17935,0.70811c-0.59071,0 -1.18262,-0.14065 -1.72442,-0.42561l-14.72474,-7.74168l-14.72474,7.74168c-1.24624,0.65676 -2.76274,0.54668 -3.90387,-0.28251c-1.14105,-0.82918 -1.71342,-2.23441 -1.47369,-3.62616l2.81167,-16.39537l-11.91073,-11.61111c-1.0102,-0.9845 -1.37464,-2.45823 -0.93804,-3.79992c0.43538,-1.34286 1.59724,-2.32003 2.99266,-2.52303l16.46018,-2.39216l7.36127,-14.91699c0.62495,-1.2658 1.91399,-2.06686 3.32403,-2.06686s2.69915,0.80106 3.32403,2.06686l7.36128,14.91699l16.46018,2.39216c1.39542,0.20301 2.55728,1.18139 2.99266,2.52303c0.43538,1.34164 0.07216,2.81533 -0.93803,3.79992l-11.91073,11.61111l2.81167,16.39537l0.00241,0.00001z"/>
   <path fill="#dba904" d="m83.67116,89.67282c0.20941,1.22103 -0.29211,2.45603 -1.29406,3.18413c-0.56702,0.41238 -1.23821,0.62179 -1.91369,0.62179c-0.51869,0 -1.03846,-0.1235 -1.51422,-0.37373l-12.92979,-6.79796l-12.9298,6.79796c-1.09432,0.5767 -2.42596,0.48003 -3.42799,-0.24807c-1.00194,-0.7281 -1.50456,-1.96203 -1.29404,-3.18414l2.46892,-14.39677l-10.45881,-10.19571c-0.88706,-0.86449 -1.20706,-2.15856 -0.82369,-3.33671c0.38231,-1.17916 1.40254,-2.03722 2.62785,-2.21548l14.45368,-2.10056l6.46394,-13.09859c0.54877,-1.11151 1.68067,-1.81492 2.91884,-1.81492s2.37011,0.70341 2.91882,1.81492l6.46394,13.09859l14.45368,2.10056c1.22532,0.17826 2.24555,1.03738 2.62786,2.21548c0.38231,1.17809 0.06335,2.47214 -0.8237,3.33671l-10.45881,10.19571l2.46893,14.39677l0.00212,0.00002z"/>
  </g>
</svg>