<svg xmlns="http://www.w3.org/2000/svg" viewBox="0 0 100 100">
    <g>
        <path fill="#ffffff" d="m81.78094,88.80324c0.37151,2.16618 -0.51821,4.35714 -2.29572,5.64883c-1.00593,0.73159 -2.19667,1.10309 -3.39501,1.10309c-0.92019,0 -1.84228,-0.2191 -2.68629,-0.66301l-22.93821,-12.05998l-22.93821,12.05998c-1.94139,1.0231 -4.30379,0.85162 -6.08145,-0.44009c-1.77751,-1.29169 -2.66917,-3.48075 -2.29572,-5.64883l4.38002,-25.54071l-18.55453,-18.08778c-1.57369,-1.53365 -2.14141,-3.82942 -1.46127,-5.91952c0.67823,-2.0919 2.48818,-3.61414 4.66197,-3.93038l25.64167,-3.72651l11.4674,-23.23767c0.97355,-1.97187 2.98161,-3.21977 5.17818,-3.21977s4.20473,1.24789 5.17818,3.21977l11.4674,23.23767l25.64167,3.72651c2.17379,0.31626 3.98374,1.84038 4.66197,3.93038c0.67823,2.09 0.11241,4.38572 -1.46127,5.91952l-18.55453,18.08778l4.38002,25.54071l0.00376,0.00002z"/>
        <path fill="#ffc311" d="m77.96332,84.6654c0.32622,1.90212 -0.45504,3.826 -2.01588,4.96024c-0.88331,0.64241 -1.92889,0.96862 -2.98115,0.96862c-0.80803,0 -1.61771,-0.19238 -2.35884,-0.58219l-20.14203,-10.58987l-20.14204,10.58987c-1.70473,0.89838 -3.77915,0.7478 -5.34012,-0.38645c-1.56083,-1.13423 -2.3438,-3.05645 -2.01587,-4.96024l3.8461,-22.42729l-16.29273,-15.88288c-1.38187,-1.3467 -1.88037,-3.36261 -1.28315,-5.19793c0.59555,-1.8369 2.18487,-3.17358 4.09368,-3.45127l22.51595,-3.27225l10.06952,-20.405c0.85487,-1.73151 2.61815,-2.82728 4.54696,-2.82728s3.69216,1.09577 4.54695,2.82728l10.06952,20.405l22.51595,3.27225c1.9088,0.27771 3.49812,1.61604 4.09368,3.45127c0.59555,1.83523 0.0987,3.8511 -1.28315,5.19793l-16.29273,15.88288l3.8461,22.42729l0.0033,0.00002z"/>
    </g>
</svg>