<?xml version="1.0" encoding="utf-8"?>
<!-- Generator: Adobe Illustrator 26.0.2, SVG Export Plug-In . SVG Version: 6.00 Build 0)  -->
<svg version="1.1" id="Layer_1" xmlns="http://www.w3.org/2000/svg" xmlns:xlink="http://www.w3.org/1999/xlink" x="0px" y="0px"
	 viewBox="0 0 100 100" style="enable-background:new 0 0 100 100;" xml:space="preserve">
<path fill="#E39423" d="M90,100H10c-5.52,0-10-4.48-10-10V10C0,4.48,4.48,0,10,0h80c5.52,0,10,4.48,10,10v80
	C100,95.52,95.52,100,90,100z"/>
<g>
	<path fill="#FFFFFF" d="M20.29,50.91c3.48,0,6.29-2.82,6.29-6.29V16.29c0-3.48-2.82-6.29-6.29-6.29S14,12.82,14,16.29v28.32
		C14,48.09,16.82,50.91,20.29,50.91z"/>
	<path fill="#FFFFFF" d="M40.13,50.91c3.48,0,6.29-2.82,6.29-6.29V16.29c0-3.48-2.82-6.29-6.29-6.29c-3.48,0-6.29,2.82-6.29,6.29v28.32
		C33.84,48.09,36.65,50.91,40.13,50.91z"/>
	<path fill="#FFFFFF" d="M60.09,38.32c3.48,0,6.29-2.82,6.29-6.29V16.29c0-3.48-2.82-6.29-6.29-6.29c-3.48,0-6.29,2.82-6.29,6.29v15.74
		C53.79,35.5,56.61,38.32,60.09,38.32z"/>
	<path fill="#FFFFFF" d="M79.57,38.32c3.48,0,6.29-2.82,6.29-6.29V16.29c0-3.48-2.82-6.29-6.29-6.29c-3.48,0-6.29,2.82-6.29,6.29v15.74
		C73.27,35.5,76.09,38.32,79.57,38.32z"/>
	<path fill="#FFFFFF" d="M78.13,43.74H62.4c-4.35,0-7.87,3.52-7.87,7.87s3.52,7.87,7.87,7.87h15.74H86V43.74H78.13z"/>
	<path fill="#FFFFFF" d="M46.42,63.66c0-1.74-1.41-3.15-3.15-3.15H17.15c-1.74,0-3.15,1.41-3.15,3.15v9.07c0,0.96,0.44,1.87,1.19,2.46
		l12.16,9.65c4.2,3.34,9.41,5.16,14.78,5.16c2.84,0,5.66-0.51,8.32-1.51l33.37-12.47c1.23-0.46,2.04-1.63,2.04-2.95v-7.32H48.52
		C47.36,65.75,46.42,64.81,46.42,63.66z"/>
</g>
</svg>
