<?xml version="1.0" encoding="utf-8"?>
<!-- Generator: Adobe Illustrator 26.0.2, SVG Export Plug-In . SVG Version: 6.00 Build 0)  -->
<svg version="1.1" id="Layer_1" xmlns="http://www.w3.org/2000/svg" xmlns:xlink="http://www.w3.org/1999/xlink" x="0px" y="0px"
	 viewBox="0 0 100 100" style="enable-background:new 0 0 100 100;" xml:space="preserve">
<path fill="#6EB0C7" d="M90,100H10c-5.52,0-10-4.48-10-10V10C0,4.48,4.48,0,10,0h80c5.52,0,10,4.48,10,10v80
	C100,95.52,95.52,100,90,100z"/>
<g>
	<path fill="#FFFFFF" d="M43.12,28.28l29.96-11.75c0.75-0.29,1.14-1.12,0.89-1.88l-0.61-1.86c-0.2-0.62-0.79-1.04-1.44-1.04H24.96
		c-0.67,0-1.26,0.44-1.45,1.08L10.07,57.08c-0.36,1.18,0.77,2.27,1.94,1.88l34.04-11.49c0.78-0.26,1.21-1.1,0.96-1.89l-4.79-15.44
		C41.99,29.38,42.38,28.57,43.12,28.28z M31.23,24.46c-2.52,0-4.55-2.03-4.55-4.55c0-2.52,2.03-4.55,4.55-4.55
		c2.5,0,4.55,2.03,4.55,4.55C35.78,22.42,33.74,24.46,31.23,24.46z"/>
	<path fill="#FFFFFF" d="M76.39,25.07l-22.01,9.25c-0.73,0.3-1.1,1.11-0.86,1.86l11.96,37.09c0.31,0.97,1.47,1.36,2.31,0.78
		l21.55-14.98c0.57-0.39,0.8-1.12,0.56-1.77l-11.5-31.35C78.11,25.14,77.19,24.74,76.39,25.07z M68.86,48.51
		c-3.78,0-6.83-3.06-6.83-6.83c0-3.78,3.05-6.83,6.83-6.83c3.76,0,6.83,3.05,6.83,6.83C75.69,45.45,72.63,48.51,68.86,48.51z"/>
	<path fill="#FFFFFF" d="M19.03,66.9l28.84,21.06c0.51,0.37,1.2,0.39,1.73,0.04l7.93-5.22c0.58-0.38,0.83-1.11,0.6-1.77l-8.9-25.56
		c-0.28-0.79-1.14-1.21-1.93-0.93l-27.86,9.72C18.27,64.65,18.04,66.18,19.03,66.9z"/>
</g>
</svg>
