<?xml version="1.0" encoding="utf-8"?>
<!-- Generator: Adobe Illustrator 26.0.2, SVG Export Plug-In . SVG Version: 6.00 Build 0)  -->
<svg version="1.1" id="Layer_1" xmlns="http://www.w3.org/2000/svg" xmlns:xlink="http://www.w3.org/1999/xlink" x="0px" y="0px"
	 viewBox="0 0 100 100" style="enable-background:new 0 0 100 100;" xml:space="preserve">
<style type="text/css">
	.st0{fill:#A2A329;}
	.st1{fill:#FFFFFF;}
</style>
<path class="st0" d="M90,100H10c-5.52,0-10-4.48-10-10V10C0,4.48,4.48,0,10,0h80c5.52,0,10,4.48,10,10v80
	C100,95.52,95.52,100,90,100z"/>
<g>
	<path class="st1" d="M74.52,24.51c0.56-0.53,0.59-1.43,0.07-2.01c-23.03-25.21-44.33-5.34-49.16-0.14
		c-0.57,0.61-0.49,1.59,0.17,2.1C51.01,44.11,70.09,28.72,74.52,24.51z"/>
	<path class="st1" d="M42.32,42.78c-8.25-2.11-18.23-8.15-23.02-11.25c-1.54-1-3.61-0.37-4.34,1.3
		C1.8,62.79,18.06,81.88,26.53,89.25c1.75,1.52,4.49,0.58,4.88-1.7c1.92-11.21,9.84-32.67,12.96-40.85
		C44.99,45.04,44.04,43.22,42.32,42.78z"/>
	<path class="st1" d="M85.04,32.83c-0.74-1.68-2.81-2.3-4.34-1.3c-4.79,3.11-14.77,9.14-23.02,11.25c-1.72,0.44-2.67,2.25-2.04,3.91
		c3.11,8.18,11.04,29.64,12.96,40.85c0.39,2.28,3.13,3.22,4.88,1.7C81.94,81.88,98.2,62.79,85.04,32.83z"/>
	<path class="st1" d="M50,78.64c-5.06,0-8.93-3.05-10.41-1.02c-1.72,2.35,2.16,7.29,10.41,7.29c8.25,0,12.14-5.17,10.19-7.29
		C58.24,75.5,55.06,78.64,50,78.64z"/>
	<path class="st1" d="M49.97,64.52c-2.59,0-4.57-1.56-5.33,0.47c-0.88,2.35,1.11,5.8,5.33,5.8c4.22,0,6.22-3.68,5.22-5.8
		C54.19,62.88,52.56,64.52,49.97,64.52z"/>
</g>
</svg>
