<?xml version="1.0" encoding="utf-8"?>
<!-- Generator: Adobe Illustrator 26.0.2, SVG Export Plug-In . SVG Version: 6.00 Build 0)  -->
<svg version="1.1" id="Layer_1" xmlns="http://www.w3.org/2000/svg" xmlns:xlink="http://www.w3.org/1999/xlink" x="0px" y="0px"
	 viewBox="0 0 100 100" style="enable-background:new 0 0 100 100;" xml:space="preserve">
<style type="text/css">
	.st0{fill:#FFFFFF;}
	.st1{fill:#4E4646;}
</style>
<g>
	<path class="st0" d="M43.89,34.1l-19.9,42.88H41.4l4.39-42.35C45.91,33.5,44.37,33.08,43.89,34.1z"/>
	<path class="st0" d="M74.06,34.1l-21.9,42.88h17.41l6.39-42.35C76.07,33.5,74.53,33.08,74.06,34.1z"/>
	<path class="st0" d="M61.5,24.61c0.04-1.07-1.41-1.45-1.89-0.49L49.15,44.85l-1.99,26.26c-0.08,1.03,1.26,1.49,1.83,0.63
		l11.32-17.01L61.5,24.61z"/>
</g>
<path class="st1" d="M90,100H10c-5.52,0-10-4.48-10-10V10C0,4.48,4.48,0,10,0h80c5.52,0,10,4.48,10,10v80
	C100,95.52,95.52,100,90,100z"/>
<g>
	<path class="st0" d="M84.75,20.45c-0.41-0.71-1.33-0.92-2.03-0.49L64.71,31.15c-0.53,0.33-0.79,0.96-0.65,1.57
		c1.44,6.02,7.79,37-13.98,37c-21.52,0-15.41-30.99-14.02-37c0.14-0.61-0.12-1.23-0.65-1.56l-18.13-11.2
		c-0.69-0.43-1.62-0.21-2.02,0.49C11.91,26.29,10,33.06,10,40.27c0,22.96,19.34,41.4,42.61,39.92
		c19.94-1.27,36.12-17.52,37.31-37.47C90.41,34.59,88.47,26.95,84.75,20.45z"/>
	<ellipse class="st0" cx="50" cy="45.53" rx="5.82" ry="12.81"/>
</g>
</svg>
