<?xml version="1.0" encoding="utf-8"?>
<!-- Generator: Adobe Illustrator 26.0.2, SVG Export Plug-In . SVG Version: 6.00 Build 0)  -->
<svg version="1.1" id="Layer_1" xmlns="http://www.w3.org/2000/svg" xmlns:xlink="http://www.w3.org/1999/xlink" x="0px" y="0px"
	 viewBox="0 0 100 100" style="enable-background:new 0 0 100 100;" xml:space="preserve">
<style type="text/css">
	.st0{fill:#5871BD;}
	.st1{fill:#FFFFFF;}
</style>
<path class="st0" d="M90,100H10c-5.52,0-10-4.48-10-10V10C0,4.48,4.48,0,10,0h80c5.52,0,10,4.48,10,10v80
	C100,95.52,95.52,100,90,100z"/>
<g>
	<path class="st1" d="M18.15,35.4c-0.34-1.4-2.27-1.51-2.75-0.15c-2.74,7.73-6.52,27.61,6.23,39.65c0.74,0.7,1.96,0.45,2.34-0.5
		c0.91-2.28,2.66-6.17,5.05-9.44c0.32-0.44,0.39-1.01,0.14-1.5C27.46,60.1,20.86,46.65,18.15,35.4z"/>
	<path class="st1" d="M84.61,35.24c-0.48-1.36-2.42-1.25-2.75,0.15c-2.71,11.25-9.32,24.71-11.01,28.06
		c-0.25,0.49-0.18,1.06,0.14,1.5c2.39,3.27,4.13,7.17,5.05,9.44c0.38,0.95,1.6,1.21,2.34,0.5C91.13,62.85,87.35,42.97,84.61,35.24z"
		/>
	<path class="st1" d="M66.23,34.25c-0.91-6.56-3.19-18.6-8.07-23.79c-0.87-0.92-2.43-0.36-2.5,0.9c-0.26,4.15-1.07,11.92-3.61,15.66
		c-0.66-0.06-1.34-0.1-2.04-0.1c-0.69,0-1.37,0.04-2.04,0.1c-2.54-3.74-3.35-11.51-3.61-15.66c-0.09-1.26-1.63-1.82-2.5-0.9
		c-4.9,5.19-7.16,17.23-8.07,23.79c-3.38,3.83-5.45,8.83-5.45,14.33c0,8.88,5.34,16.51,13,19.85v12.91c0,4.8,3.87,8.67,8.67,8.67
		c4.78,0,8.67-3.87,8.67-8.67V68.42c7.64-3.34,13-10.96,13-19.85C71.67,43.07,69.61,38.07,66.23,34.25z M43.73,62.99
		c-9.2-0.77-9.42-10.08-8.93-14.8c0.06-0.59,0.9-0.71,1.11-0.14c1.82,4.8,6.54,11.54,8.35,14.02
		C44.56,62.47,44.23,63.03,43.73,62.99z M56.29,62.99c-0.51,0.04-0.84-0.52-0.55-0.92c1.81-2.48,6.54-9.23,8.36-14.02
		c0.22-0.56,1.05-0.45,1.11,0.14C65.71,52.91,65.49,62.22,56.29,62.99z"/>
</g>
</svg>
