<?xml version="1.0" encoding="utf-8"?>
<!-- Generator: Adobe Illustrator 26.0.2, SVG Export Plug-In . SVG Version: 6.00 Build 0)  -->
<svg version="1.1" id="Layer_1" xmlns="http://www.w3.org/2000/svg" xmlns:xlink="http://www.w3.org/1999/xlink" x="0px" y="0px"
	 viewBox="0 0 100 100" style="enable-background:new 0 0 100 100;" xml:space="preserve">
<g>
	<path fill="#FFFFFF" d="M43.89,34.1l-19.9,42.88H41.4l4.39-42.35C45.91,33.5,44.37,33.08,43.89,34.1z"/>
	<path fill="#FFFFFF" d="M74.06,34.1l-21.9,42.88h17.41l6.39-42.35C76.07,33.5,74.53,33.08,74.06,34.1z"/>
	<path fill="#FFFFFF" d="M61.5,24.61c0.04-1.07-1.41-1.45-1.89-0.49L49.15,44.85l-1.99,26.26c-0.08,1.03,1.26,1.49,1.83,0.63
		l11.32-17.01L61.5,24.61z"/>
</g>
<path fill="#E28EE3" d="M90,100H10c-5.52,0-10-4.48-10-10V10C0,4.48,4.48,0,10,0h80c5.52,0,10,4.48,10,10v80
	C100,95.52,95.52,100,90,100z"/>
<path fill="#FFFFFF" d="M87.83,10c0,0,0,7.34,0,19.6c0,12.27-16.43,20.31-16.43,20.31s7.62,7.45,4.93,18.44c0,0-8.98,4.28-18.8-3.65
	c0,0,7.28,23.9,3.65,25.24C57.53,91.3,50,63.3,50,63.3s-7.53,28-11.18,26.65c-3.63-1.34,3.65-25.24,3.65-25.24
	c-9.82,7.93-18.8,3.65-18.8,3.65c-2.69-10.99,4.93-18.44,4.93-18.44S12.17,41.88,12.17,29.6c0-12.26,0-19.6,0-19.6s4.17,0,18.32,0
	S50,27.96,50,27.96s-0.73,11.38-11.7,12.97c-1.17,0.17-1.7,1.56-0.96,2.49c2.46,3.11,7.34,8.25,12.66,8.25s10.2-5.15,12.66-8.25
	c0.74-0.93,0.22-2.32-0.96-2.49C50.73,39.34,50,27.96,50,27.96S55.36,10,69.51,10S87.83,10,87.83,10z"/>
</svg>
