<?xml version="1.0" encoding="utf-8"?>
<!-- Generator: Adobe Illustrator 26.0.2, SVG Export Plug-In . SVG Version: 6.00 Build 0)  -->
<svg version="1.1" id="Layer_1" xmlns="http://www.w3.org/2000/svg" xmlns:xlink="http://www.w3.org/1999/xlink" x="0px" y="0px"
	 viewBox="0 0 100 100" style="enable-background:new 0 0 100 100;" xml:space="preserve">
<g>
	<path fill="#FFFFFF" d="M43.89,34.1l-19.9,42.88H41.4l4.39-42.35C45.91,33.5,44.37,33.08,43.89,34.1z"/>
	<path fill="#FFFFFF" d="M74.06,34.1l-21.9,42.88h17.41l6.39-42.35C76.07,33.5,74.53,33.08,74.06,34.1z"/>
	<path fill="#FFFFFF" d="M61.5,24.61c0.04-1.07-1.41-1.45-1.89-0.49L49.15,44.85l-1.99,26.26c-0.08,1.03,1.26,1.49,1.83,0.63
		l11.32-17.01L61.5,24.61z"/>
</g>
<path fill="#E5633F" d="M90,100H10c-5.52,0-10-4.48-10-10V10C0,4.48,4.48,0,10,0h80c5.52,0,10,4.48,10,10v80
	C100,95.52,95.52,100,90,100z"/>
<path fill="#FFFFFF" d="M45.86,89.69C47.21,89.9,48.59,90,50,90c15.36,0,27.81-11.25,27.81-24.08c0-7.6-2.54-13.55-8.96-18.06
	c-6.42-4.52-2.22-13.31-2.22-13.31c-14.02,0-9.19,14.57-9.19,14.57c-11.01-7.6,4.44-21.78-0.79-31.37
	c-6.9-12.66-18.54-6.02-18.54-6.02c5.62,0,11.09,11.25,2.38,18.22S22.19,46.83,22.19,62.19c0,9.73,5,18.3,12.57,23.27
	c0,0-12.96-24.6,4.79-41.87c0,0-1.51,10.06,6.18,15.68c7.68,5.62,13.9,13.34,12.52,20.44C56.81,86.99,45.86,89.69,45.86,89.69z"/>
</svg>
