<?xml version="1.0" encoding="utf-8"?>
<!-- Generator: Adobe Illustrator 26.0.2, SVG Export Plug-In . SVG Version: 6.00 Build 0)  -->
<svg version="1.1" id="Layer_1" xmlns="http://www.w3.org/2000/svg" xmlns:xlink="http://www.w3.org/1999/xlink" x="0px" y="0px"
	 viewBox="0 0 100 100" style="enable-background:new 0 0 100 100;" xml:space="preserve">
<style type="text/css">
	.st0{fill:#77AFD4;}
	.st1{fill:#FFFFFF;}
</style>
<path class="st0" d="M90,100H10c-5.52,0-10-4.48-10-10V10C0,4.48,4.48,0,10,0h80c5.52,0,10,4.48,10,10v80
	C100,95.52,95.52,100,90,100z"/>
<path class="st1" d="M14.91,89.94c4.11,1.29,14.22-19.22,14.22-19.22s10.27,0,18.66,0s14.61-9.22,14-10.22
	c-0.61-1-8.61,3.78-16.55,3.78s-5.66-5.28-1.11-5.22c4.55,0.06,27.05-7.44,30.77-14.88c3.34-6.68,0.83-4.89-5.66-0.89
	c-3.33,2.05-9.72,3.55-14.99,3.55s-5.44-3.61,0.56-4.78S82.55,26.8,85.11,17.3s-0.89-7.94-4.55-5.22s-22.1,9.89-31.88,10.44
	c-9.77,0.56-16.99,4.22-20.44,11.66S10.3,88.5,14.91,89.94z"/>
</svg>
