<?xml version="1.0" encoding="utf-8"?>
<!-- Generator: Adobe Illustrator 26.0.2, SVG Export Plug-In . SVG Version: 6.00 Build 0)  -->
<svg version="1.1" id="Layer_1" xmlns="http://www.w3.org/2000/svg" xmlns:xlink="http://www.w3.org/1999/xlink" x="0px" y="0px"
	 viewBox="0 0 100 100" style="enable-background:new 0 0 100 100;" xml:space="preserve">
<style type="text/css">
	.st0{fill:#FFFFFF;}
	.st1{fill:#6C456E;}
</style>
<g>
	<path class="st0" d="M43.89,34.1l-19.9,42.88H41.4l4.39-42.35C45.91,33.5,44.37,33.08,43.89,34.1z"/>
	<path class="st0" d="M74.06,34.1l-21.9,42.88h17.41l6.39-42.35C76.07,33.5,74.53,33.08,74.06,34.1z"/>
	<path class="st0" d="M61.5,24.61c0.04-1.07-1.41-1.45-1.89-0.49L49.15,44.85l-1.99,26.26c-0.08,1.03,1.26,1.49,1.83,0.63
		l11.32-17.01L61.5,24.61z"/>
</g>
<path class="st1" d="M90,100H10c-5.52,0-10-4.48-10-10V10C0,4.48,4.48,0,10,0h80c5.52,0,10,4.48,10,10v80
	C100,95.52,95.52,100,90,100z"/>
<path class="st0" d="M84.89,50.94c-2.71-1.42-5.88-0.79-7.79-0.16c-0.85,0.28-1.74-0.36-1.74-1.27v-7.26
	c0-14.01-11.36-25.37-25.37-25.37S24.63,28.24,24.63,42.25v7.26c0,0.91-0.88,1.55-1.74,1.27c-1.91-0.63-5.07-1.26-7.79,0.16
	c-4.21,2.2-6.53,11.08-4.15,11.08c2.39,0,2.03-3.85,4.15-3.85c2.14,0,3.04,10.14,7.92,10.14c4.86,0,3.3-5.57,6.89-5.57
	c3.61,0,0.61,3.54,7.4,11.76C44.1,82.72,50,83.12,50,83.12s5.9-0.4,12.69-8.61c6.78-8.23,3.79-11.76,7.4-11.76
	c3.59,0,2.03,5.57,6.89,5.57c4.87,0,5.78-10.14,7.92-10.14c2.12,0,1.76,3.85,4.15,3.85C91.42,62.03,89.1,53.14,84.89,50.94z
	 M43,45.29c-1.72,0.87-6.13-3.08-7.1-5.17c-0.96-2.08-1.52-7.41,0-8.43c2.79-1.86,7.56,3.66,8.52,6.8
	C45.39,41.65,44.98,44.3,43,45.29z M64.1,40.12c-0.97,2.08-5.38,6.04-7.1,5.17c-1.98-0.99-2.39-3.65-1.42-6.8
	c0.96-3.14,5.73-8.65,8.52-6.8C65.62,32.71,65.06,38.04,64.1,40.12z"/>
</svg>
