<?xml version="1.0" encoding="utf-8"?>
<!-- Generator: Adobe Illustrator 26.0.2, SVG Export Plug-In . SVG Version: 6.00 Build 0)  -->
<svg version="1.1" id="Layer_1" xmlns="http://www.w3.org/2000/svg" xmlns:xlink="http://www.w3.org/1999/xlink" x="0px" y="0px"
	 viewBox="0 0 100 100" style="enable-background:new 0 0 100 100;" xml:space="preserve">
<style type="text/css">
	.st0{fill:#FFFFFF;}
	.st1{fill:#49983A;}
</style>
<g>
	<path class="st0" d="M43.89,34.1l-19.9,42.88H41.4l4.39-42.35C45.91,33.5,44.37,33.08,43.89,34.1z"/>
	<path class="st0" d="M74.06,34.1l-21.9,42.88h17.41l6.39-42.35C76.07,33.5,74.53,33.08,74.06,34.1z"/>
	<path class="st0" d="M61.5,24.61c0.04-1.07-1.41-1.45-1.89-0.49L49.15,44.85l-1.99,26.26c-0.08,1.03,1.26,1.49,1.83,0.63
		l11.32-17.01L61.5,24.61z"/>
</g>
<path class="st1" d="M90,100H10c-5.52,0-10-4.48-10-10V10C0,4.48,4.48,0,10,0h80c5.52,0,10,4.48,10,10v80
	C100,95.52,95.52,100,90,100z"/>
<g>
	<path class="st0" d="M40.88,25.77L11.07,90h26.07l6.58-63.44C43.9,24.88,41.59,24.24,40.88,25.77z"/>
	<path class="st0" d="M86.07,25.77L53.26,90h26.07l9.58-63.44C89.09,24.88,86.78,24.24,86.07,25.77z"/>
	<path class="st0" d="M67.25,11.56c0.06-1.61-2.11-2.17-2.83-0.73L48.75,41.87l-2.98,39.34c-0.12,1.54,1.89,2.23,2.74,0.94
		l16.96-25.48L67.25,11.56z"/>
</g>
</svg>
