<?xml version="1.0" encoding="utf-8"?>
<!-- Generator: Adobe Illustrator 26.0.2, SVG Export Plug-In . SVG Version: 6.00 Build 0)  -->
<svg version="1.1" id="Layer_1" xmlns="http://www.w3.org/2000/svg" xmlns:xlink="http://www.w3.org/1999/xlink" x="0px" y="0px"
	 viewBox="0 0 100 100" style="enable-background:new 0 0 100 100;" xml:space="preserve">
<style type="text/css">
	.st0{fill:#A6753B;}
	.st1{fill:#FFFFFF;}
</style>
<path class="st0" d="M90,100H10c-5.52,0-10-4.48-10-10V10C0,4.48,4.48,0,10,0h80c5.52,0,10,4.48,10,10v80
	C100,95.52,95.52,100,90,100z"/>
<g>
	<rect x="17.09" y="10" class="st1" width="15.32" height="15.32"/>
	<rect x="35.45" y="27.26" class="st1" width="9.19" height="9.19"/>
	<rect x="66.8" y="19.14" class="st1" width="12.26" height="12.26"/>
	<polygon class="st1" points="12.18,65.91 12.18,73.08 49.07,90 87.82,73.08 87.82,65.91 49.07,83.34 	"/>
	<polygon class="st1" points="87.82,58.39 49.13,41.75 12.18,58.39 49.13,75.5 	"/>
</g>
</svg>
