<?xml version="1.0" encoding="utf-8"?>
<!-- Generator: Adobe Illustrator 26.0.2, SVG Export Plug-In . SVG Version: 6.00 Build 0)  -->
<svg version="1.1" id="Layer_1" xmlns="http://www.w3.org/2000/svg" xmlns:xlink="http://www.w3.org/1999/xlink" x="0px" y="0px"
	 viewBox="0 0 100 100" style="enable-background:new 0 0 100 100;" xml:space="preserve">
<style type="text/css">
	.st0{fill:#FFFFFF;}
	.st1{fill:#9556CB;}
</style>
<g>
	<path class="st0" d="M43.89,34.1l-19.9,42.88H41.4l4.39-42.35C45.91,33.5,44.37,33.08,43.89,34.1z"/>
	<path class="st0" d="M74.06,34.1l-21.9,42.88h17.41l6.39-42.35C76.07,33.5,74.53,33.08,74.06,34.1z"/>
	<path class="st0" d="M61.5,24.61c0.04-1.07-1.41-1.45-1.89-0.49L49.15,44.85l-1.99,26.26c-0.08,1.03,1.26,1.49,1.83,0.63
		l11.32-17.01L61.5,24.61z"/>
</g>
<path class="st1" d="M90,100H10c-5.52,0-10-4.48-10-10V10C0,4.48,4.48,0,10,0h80c5.52,0,10,4.48,10,10v80
	C100,95.52,95.52,100,90,100z"/>
<g>
	<circle class="st0" cx="36.29" cy="25.6" r="15.6"/>
	<circle class="st0" cx="67.6" cy="44.99" r="9.36"/>
	<path class="st0" d="M62.45,71.77C62.16,65.14,56.71,59.84,50,59.84s-12.16,5.29-12.45,11.92C22.12,73.02,11,76.52,11,80.64
		C11,85.81,28.46,90,50,90s39-4.19,39-9.36C89,76.52,77.88,73.02,62.45,71.77z"/>
</g>
</svg>
