<?xml version="1.0" encoding="utf-8"?>
<!-- Generator: Adobe Illustrator 26.0.2, SVG Export Plug-In . SVG Version: 6.00 Build 0)  -->
<svg version="1.1" id="Layer_1" xmlns="http://www.w3.org/2000/svg" xmlns:xlink="http://www.w3.org/1999/xlink" x="0px" y="0px"
	 viewBox="0 0 100 100" style="enable-background:new 0 0 100 100;" xml:space="preserve">
<style type="text/css">
	.st0{fill:#FFFFFF;}
	.st1{fill:#AFA781;}
</style>
<g>
	<path class="st0" d="M43.89,34.1l-19.9,42.88H41.4l4.39-42.35C45.91,33.5,44.37,33.08,43.89,34.1z"/>
	<path class="st0" d="M74.06,34.1l-21.9,42.88h17.41l6.39-42.35C76.07,33.5,74.53,33.08,74.06,34.1z"/>
	<path class="st0" d="M61.5,24.61c0.04-1.07-1.41-1.45-1.89-0.49L49.15,44.85l-1.99,26.26c-0.08,1.03,1.26,1.49,1.83,0.63
		l11.32-17.01L61.5,24.61z"/>
</g>
<path class="st1" d="M90,100H10c-5.52,0-10-4.48-10-10V10C0,4.48,4.48,0,10,0h80c5.52,0,10,4.48,10,10v80
	C100,95.52,95.52,100,90,100z"/>
<path class="st0" d="M65.29,10H34.71c-0.82,0-1.61,0.33-2.19,0.91L10.91,32.52C10.33,33.1,10,33.89,10,34.71v30.58
	c0,0.82,0.33,1.61,0.91,2.19l21.62,21.62C33.1,89.67,33.89,90,34.71,90h30.58c0.82,0,1.61-0.33,2.19-0.91l21.62-21.62
	C89.67,66.9,90,66.11,90,65.29V34.71c0-0.82-0.33-1.61-0.91-2.19L67.48,10.91C66.9,10.33,66.11,10,65.29,10z M63.17,19.75l8,1.68
	c3.74,0.8,6.69,3.69,7.55,7.42l2.03,8.75c0.12,0.49-0.48,0.82-0.83,0.46L62.71,20.58C62.37,20.23,62.69,19.65,63.17,19.75z
	 M43.92,82.22l-13.68-3.17c-5.82-1.35-10.34-5.95-11.57-11.8l-2.65-12.49c-0.15-0.75,0.75-1.25,1.31-0.71l27.29,26.88
	C45.18,81.46,44.68,82.4,43.92,82.22z M83.97,54.75l-2.65,12.49c-1.23,5.85-5.75,10.45-11.57,11.8l-13.68,3.17
	c-0.75,0.18-1.26-0.75-0.71-1.29l27.29-26.88C83.22,53.51,84.12,54,83.97,54.75z"/>
</svg>
