<?xml version="1.0" encoding="utf-8"?>
<!-- Generator: Adobe Illustrator 26.0.2, SVG Export Plug-In . SVG Version: 6.00 Build 0)  -->
<svg version="1.1" id="Layer_1" xmlns="http://www.w3.org/2000/svg" xmlns:xlink="http://www.w3.org/1999/xlink" x="0px" y="0px"
	 viewBox="0 0 100 100" style="enable-background:new 0 0 100 100;" xml:space="preserve">
<style type="text/css">
	.st0{fill:#FFFFFF;}
	.st1{fill:#339DDF;}
</style>
<g>
	<path class="st0" d="M43.89,34.1l-19.9,42.88H41.4l4.39-42.35C45.91,33.5,44.37,33.08,43.89,34.1z"/>
	<path class="st0" d="M74.06,34.1l-21.9,42.88h17.41l6.39-42.35C76.07,33.5,74.53,33.08,74.06,34.1z"/>
	<path class="st0" d="M61.5,24.61c0.04-1.07-1.41-1.45-1.89-0.49L49.15,44.85l-1.99,26.26c-0.08,1.03,1.26,1.49,1.83,0.63
		l11.32-17.01L61.5,24.61z"/>
</g>
<path class="st1" d="M90,100H10c-5.52,0-10-4.48-10-10V10C0,4.48,4.48,0,10,0h80c5.52,0,10,4.48,10,10v80
	C100,95.52,95.52,100,90,100z"/>
<path class="st0" d="M51.34,11.02c-0.39-1.35-2.29-1.35-2.68,0c-7.8,26.96-23.09,41.84-23.09,54.55C25.57,79.07,36.51,90,50,90
	c13.5,0,24.43-10.93,24.43-24.43C74.43,52.86,59.12,37.98,51.34,11.02z M67.27,68.64c-1.26,8.42-8.5,14.87-17.27,14.87
	c-8.75,0-16.01-6.45-17.26-14.87c-0.17-1.13,0.98-2,2.01-1.48l5.88,2.95c5.91,2.95,12.85,2.95,18.74,0l5.89-2.95
	C66.28,66.64,67.44,67.51,67.27,68.64z"/>
</svg>
